<?xml version="1.0" encoding="UTF-8" standalone="no"?>
<!-- Created with Inkscape (http://www.inkscape.org/) -->

<svg
   xmlns="http://www.w3.org/2000/svg"
   xmlns:xlink="http://www.w3.org/1999/xlink"
   xmlns:sodipodi="http://sodipodi.sourceforge.net/DTD/sodipodi-0.dtd"
   xmlns:inkscape="http://www.inkscape.org/namespaces/inkscape"
   id="svg2"
   sodipodi:docname="Light-Bulbs.svg"
   inkscape:export-filename="C:\Documents and Settings\Dan\Skrivbord\Clipart egna (InkScape)\Original\Kanske Upload\Glödlampa.png"
   viewBox="0 0 215.69 162.88"
   version="1.0"
   inkscape:output_extension="org.inkscape.output.svg.inkscape"
   inkscape:export-ydpi="310"
   inkscape:version="0.91 r13725">
  <defs
     id="defs4">
    <linearGradient
       id="linearGradient4115"
       inkscape:collect="always">
      <stop
         id="stop4117"
         style="stop-color:#959595;stop-opacity:.30622"
         offset="0" />
      <stop
         id="stop4119"
         style="stop-color:#3d3d3d;stop-opacity:.53589"
         offset="1" />
    </linearGradient>
    <linearGradient
       id="linearGradient4015"
       inkscape:collect="always">
      <stop
         id="stop4017"
         style="stop-color:#000000"
         offset="0" />
      <stop
         id="stop4019"
         style="stop-color:#000000;stop-opacity:0"
         offset="1" />
    </linearGradient>
    <linearGradient
       id="linearGradient3993"
       inkscape:collect="always">
      <stop
         id="stop3995"
         style="stop-color:#585858"
         offset="0" />
      <stop
         id="stop3997"
         style="stop-color:#434343"
         offset="1" />
    </linearGradient>
    <linearGradient
       id="linearGradient3951"
       inkscape:collect="always">
      <stop
         id="stop3953"
         style="stop-color:#808080"
         offset="0" />
      <stop
         id="stop3955"
         style="stop-color:#5b5b5b"
         offset="1" />
    </linearGradient>
    <linearGradient
       id="linearGradient4252"
       y2="707.61"
       xlink:href="#linearGradient3951"
       gradientUnits="userSpaceOnUse"
       x2="371.8"
       gradientTransform="translate(-111.02)"
       y1="707.61"
       x1="340.55"
       inkscape:collect="always" />
    <linearGradient
       id="linearGradient4254"
       y2="700.68"
       xlink:href="#linearGradient4015"
       gradientUnits="userSpaceOnUse"
       x2="425.3"
       gradientTransform="translate(-179.78)"
       y1="686.33"
       x1="425.3"
       inkscape:collect="always" />
    <linearGradient
       id="linearGradient4256"
       y2="127.11"
       xlink:href="#linearGradient3993"
       gradientUnits="userSpaceOnUse"
       x2="140.99"
       gradientTransform="translate(84.033 580)"
       y1="127.11"
       x1="178.75"
       inkscape:collect="always" />
    <linearGradient
       id="linearGradient4260"
       y2="693.88"
       xlink:href="#linearGradient4015"
       gradientUnits="userSpaceOnUse"
       x2="353.86"
       gradientTransform="translate(-111.02)"
       y1="690.18"
       x1="353.86"
       inkscape:collect="always" />
    <linearGradient
       id="linearGradient4262"
       y2="640.86"
       xlink:href="#linearGradient4115"
       gradientUnits="userSpaceOnUse"
       x2="388.55"
       gradientTransform="translate(-111.02)"
       y1="614.86"
       x1="316.3"
       inkscape:collect="always" />
    <linearGradient
       id="linearGradient4264"
       y2="652.84"
       gradientUnits="userSpaceOnUse"
       x2="362.05"
       gradientTransform="translate(-111.02)"
       y1="685.29"
       x1="362.05"
       inkscape:collect="always">
      <stop
         id="stop4127"
         style="stop-color:#b9b9b9"
         offset="0" />
      <stop
         id="stop4129"
         style="stop-color:#cecece;stop-opacity:0"
         offset="1" />
    </linearGradient>
    <linearGradient
       id="linearGradient4278"
       y2="650.59003"
       gradientUnits="userSpaceOnUse"
       x2="361.54999"
       gradientTransform="translate(-144.02,0)"
       y1="685.29"
       x1="362.05"
       inkscape:collect="always">
      <stop
         id="stop4195"
         style="stop-color:#e9e337;stop-opacity:1"
         offset="0" />
      <stop
         id="stop4197"
         style="stop-color:#f9fca2;stop-opacity:0"
         offset="1" />
    </linearGradient>
    <linearGradient
       inkscape:collect="always"
       xlink:href="#linearGradient3951"
       id="linearGradient4181"
       gradientUnits="userSpaceOnUse"
       gradientTransform="translate(-144.02,0)"
       x1="340.55"
       y1="707.61"
       x2="371.8"
       y2="707.61" />
    <linearGradient
       inkscape:collect="always"
       xlink:href="#linearGradient4015"
       id="linearGradient4183"
       gradientUnits="userSpaceOnUse"
       gradientTransform="translate(-212.78,0)"
       x1="425.3"
       y1="686.33"
       x2="425.3"
       y2="700.68" />
    <linearGradient
       inkscape:collect="always"
       xlink:href="#linearGradient3993"
       id="linearGradient4185"
       gradientUnits="userSpaceOnUse"
       gradientTransform="translate(51.033,580)"
       x1="178.75"
       y1="127.11"
       x2="140.99"
       y2="127.11" />
    <linearGradient
       inkscape:collect="always"
       xlink:href="#linearGradient3951"
       id="linearGradient4187"
       gradientUnits="userSpaceOnUse"
       gradientTransform="translate(-144.02,0)"
       x1="340.55"
       y1="707.61"
       x2="371.8"
       y2="707.61" />
    <linearGradient
       inkscape:collect="always"
       xlink:href="#linearGradient4015"
       id="linearGradient4189"
       gradientUnits="userSpaceOnUse"
       gradientTransform="translate(-144.02,0)"
       x1="3.86"
       y1="690.18"
       x2="353.86"
       y2="693.88" />
    <linearGradient
       inkscape:collect="always"
       xlink:href="#linearGradient4204"
       id="linearGradient4191"
       gradientUnits="userSpaceOnUse"
       gradientTransform="translate(-144.02,0)"
       x1="316.3"
       y1="614.86"
       x2="388.55"
       y2="640.86" />
  </defs>
  <g
     id="layer2"
     inkscape:groupmode="layer"
     transform="translate(-150.08 -570.09)">
    <g
       id="g4131"
       transform="translate(8.5013 -5.5)"
       inkscape:export-xdpi="310"
       inkscape:export-ydpi="310">
      <rect
         id="rect3835"
         style="color:#000000;fill:url(#linearGradient4252)"
         rx="0"
         ry="0"
         height="31.25"
         width="33.75"
         y="687.36"
         x="227.55" />
      <rect
         id="rect4011"
         style="color:#000000;fill:url(#linearGradient4254)"
         rx="0"
         ry="0"
         height="31.25"
         width="33.75"
         y="687.36"
         x="227.55" />
      <path
         id="path3869"
         d="m225.53 695.84v2.4375l17.75-2.4375h-17.75zm37.75 0.25-37.75 5.1875v2.0625l37.75-5.1875v-2.0625zm0 5.0625-37.75 5.1875v2.0625l37.75-5.1875v-2.0625zm0 5.0625-37.75 5.1875v2.0312l37.75-5.1875v-2.0312zm0 5.0312-37.75 5.1875v2.0625l37.75-5.1875v-2.0625z"
         style="fill:url(#linearGradient4256)"
         inkscape:connector-curvature="0" />
      <path
         id="rect3837"
         d="m225.17 688.22v5.25c0 1.385 1.115 2.5 2.5 2.5h33.5c1.385 0 2.5-1.115 2.5-2.5v-5.25z"
         sodipodi:nodetypes="csssscc"
         style="color:#000000;fill:url(#linearGradient4252)"
         inkscape:connector-curvature="0" />
      <path
         id="path4001"
         sodipodi:nodetypes="csssscc"
         style="color:#000000;fill:url(#linearGradient4260)"
         inkscape:connector-curvature="0"
         d="m225.17 688.22v5.25c0 1.385 1.115 2.5 2.5 2.5h33.5c1.385 0 2.5-1.115 2.5-2.5v-5.25z" />
      <path
         id="path3032"
         d="m244.42 581.09c-24.493 0-44.344 19.851-44.344 44.344 0 11.167 4.1252 21.359 10.938 29.156 3.878 4.0518 6.5995 9.9233 7.4688 16.656l0.0191 12.429c0 4.4527 3.5756 8.0284 8.0284 8.0284h35.78c4.4527 0 8.0284-3.5756 8.0284-8.0284l-0.0121-12.429c0.86451-6.7196 3.6103-12.574 7.4688-16.625 0.003-0.01-0.002-0.0215 0-0.0312 6.8156-7.7976 10.969-17.986 10.969-29.156 0-24.493-19.851-44.344-44.344-44.344z"
         sodipodi:nodetypes="sscccssccccss"
         style="opacity:.68293;fill:url(#linearGradient4262)"
         inkscape:connector-curvature="0" />
      <path
         id="rect3880"
         d="m227.53 718.59 4.25 4.75h25.25l4.25-4.75z"
         sodipodi:nodetypes="ccccc"
         style="color:#000000;fill:#808080"
         inkscape:connector-curvature="0" />

      <path
         id="path4121"
         d="m244.42 581.09c-24.493 0-44.344 19.851-44.344 44.344 0 11.167 4.1252 21.359 10.938 29.156 3.878 4.0518 6.5995 9.9233 7.4688 16.656l0.0191 12.429c0 4.4527 3.5756 8.0284 8.0284 8.0284h35.78c4.4527 0 8.0284-3.5756 8.0284-8.0284l-0.0121-12.429c0.86451-6.7196 3.6103-12.574 7.4688-16.625 0.003-0.01-0.002-0.0215 0-0.0312 6.8156-7.7976 10.969-17.986 10.969-29.156 0-24.493-19.851-44.344-44.344-44.344z"
         sodipodi:nodetypes="sscccssccccss"
         style="fill:url(#linearGradient4264)"
         inkscape:connector-curvature="0" />

    </g>
  </g>
</svg>
