<?xml version="1.0" encoding="UTF-8" standalone="no"?>
<!-- Created with Inkscape (http://www.inkscape.org/) -->

<svg
   width="210mm"
   height="297mm"
   viewBox="0 0 210 297"
   version="1.1"
   id="svg1454"
   inkscape:version="1.1.1 (3bf5ae0d25, 2021-09-20)"
   sodipodi:docname="drawing-2.svg"
   xmlns:inkscape="http://www.inkscape.org/namespaces/inkscape"
   xmlns:sodipodi="http://sodipodi.sourceforge.net/DTD/sodipodi-0.dtd"
   xmlns="http://www.w3.org/2000/svg"
   xmlns:svg="http://www.w3.org/2000/svg">
  <sodipodi:namedview
     id="namedview1456"
     pagecolor="#ffffff"
     bordercolor="#666666"
     borderopacity="1.0"
     inkscape:pageshadow="2"
     inkscape:pageopacity="0.0"
     inkscape:pagecheckerboard="0"
     inkscape:document-units="mm"
     showgrid="false"
     inkscape:zoom="0.62181538"
     inkscape:cx="396.41992"
     inkscape:cy="554.02297"
     inkscape:window-width="1920"
     inkscape:window-height="986"
     inkscape:window-x="-11"
     inkscape:window-y="-11"
     inkscape:window-maximized="1"
     inkscape:current-layer="layer1" />
  <defs
     id="defs1451" />
  <g
     inkscape:label="Layer 1"
     inkscape:groupmode="layer"
     id="layer1">
    <path
       style="fill:#000000;fill-opacity:1;fill-rule:nonzero;stroke:none;stroke-width:0.264583"
       id="path1491"
       d="m 2.0277713,69.83822 c 0.1724121,1.669748 0.2542225,3.346434 0.3090541,5.023546 0.047203,1.654153 0.046569,3.309165 0.048527,4.963842 -0.018882,2.040271 0.402551,4.067995 0.9332528,6.029603 0.4543115,1.461045 0.6000179,2.97447 0.6976785,4.49249 0.077354,1.583843 0.077189,3.169983 0.077637,4.755282 -0.109489,1.779199 0.1089989,3.519027 0.4547579,5.260017 0.2541942,1.62203 0.6265924,3.21759 1.0366471,4.80579 0.3783478,2.11094 1.1559695,4.07869 2.1058372,5.98926 1.1540392,2.60158 2.9326681,4.77173 4.8783021,6.81222 2.370091,2.22906 5.161579,4.1028 8.483879,4.45023 0.84695,0.0886 1.703111,0.009 2.554667,0.0138 0.731085,-0.0934 1.473848,-0.12007 2.193254,-0.28027 2.838171,-0.63206 5.81041,-2.01887 8.036763,-3.90247 0.607721,-0.51416 1.134649,-1.11683 1.701974,-1.67525 2.842205,-3.22691 3.644927,-6.2028 4.098491,-10.35576 0.186092,-2.76125 0.253984,-5.53675 0.02811,-8.295899 -0.221406,-1.75781 -0.402825,-3.522977 -0.862092,-5.239425 -0.05535,-0.206872 -0.653232,-2.110202 -0.759245,-2.448798 -0.428001,-1.83099 -1.118603,-3.589049 -1.569289,-5.41166 -0.231968,-1.360051 -0.687647,-3.251361 -0.452244,-4.606404 0.02661,-0.0466 0.07526,-0.193257 0.07983,-0.139792 0.01397,0.163697 -0.05417,0.326109 -0.04989,0.490347 0.0043,0.166423 0.208346,0.05006 0.256191,0.04275 0.08312,-0.0127 0.167505,-0.01498 0.251256,-0.02246 0.186624,-0.03272 0.373245,-0.06543 0.559869,-0.09815 2.367857,-0.02829 4.407868,0.791789 6.389952,2.013029 1.246709,0.822553 2.437445,1.730838 3.246972,3.009025 0.35909,0.566978 0.686181,1.309944 0.969941,1.909418 0.930482,2.328241 0.889646,4.348925 0.519986,6.795077 -0.448659,1.748467 -0.778806,3.574851 -1.500973,5.240599 -0.304409,0.702143 -0.706094,1.357983 -1.061559,2.035713 -1.383403,2.10623 -2.189231,4.30273 -2.635419,6.7699 -0.366633,2.26834 -0.235416,4.53924 0.644548,6.68174 0.213636,0.52015 0.497417,1.00864 0.746125,1.51297 1.666976,2.7151 3.749805,4.60476 6.502371,6.15342 1.636856,0.85646 3.427654,1.56976 5.284796,1.75153 1.900697,0.18604 2.528662,0.0575 4.387035,-0.0894 2.768637,-0.45859 5.50595,-1.44324 7.498114,-3.51557 1.330727,-1.38427 1.665213,-2.14429 2.610612,-3.74008 1.522463,-3.07855 2.293191,-6.47394 2.461932,-9.89873 0.03521,-0.71459 0.01053,-1.43088 0.0158,-2.14632 -0.0061,-3.91863 -1.666867,-7.49615 -2.789878,-11.170763 -0.676987,-2.787496 -1.391351,-5.567331 -2.301264,-8.289716 -0.436764,-1.290031 -1.056897,-2.639118 -0.992246,-4.033189 0.112776,-2.126036 0.66361,-4.243141 1.427843,-6.22726 0.650944,-1.162621 0.985004,-2.509506 2.390283,-2.876909 0.172389,0.133741 -0.225026,0.293401 -0.124897,0.38277 0.247378,0.220794 0.608005,0.265062 0.907714,0.406915 0.417764,0.197732 0.84169,0.384805 1.24437,0.61168 0.974598,0.549103 1.510747,1.015201 2.413791,1.706528 1.83519,1.800019 4.104849,3.954008 5.124789,6.356033 0.162036,0.381606 0.25374,0.789387 0.380611,1.184079 0.588742,2.296557 0.596537,4.7058 0.388376,7.055384 -0.03623,0.343543 -0.04474,0.691153 -0.108693,1.030632 -0.201375,1.069049 -0.849548,2.176258 -1.28119,3.14898 -1.019913,2.298409 -0.518776,1.153269 -1.504053,3.435808 -1.242052,2.686168 -1.954744,5.530878 -2.271283,8.460848 0.0154,1.50155 -0.08174,2.2879 0.43467,3.79417 0.996434,2.90639 3.020947,5.07861 5.089816,7.24879 2.597806,2.61138 5.940886,4.48446 9.579232,5.18352 0.77008,0.14797 1.556094,0.19552 2.334141,0.29328 3.396128,0.0797 6.560126,-0.83695 9.182946,-3.05332 1.70599,-1.44161 1.90812,-2.07449 3.11437,-3.95335 2.11279,-4.43945 2.28046,-9.39026 2.43273,-14.21558 0.17597,-3.741425 -0.25045,-7.465856 -0.57482,-11.186045 -0.14627,-1.283962 -0.43808,-2.542625 -0.67476,-3.810945 -0.0985,-0.527727 -0.24451,-1.058735 -0.14639,-1.595138 0.26117,0.964776 -0.64992,1.725773 -1.26039,2.259189 -0.11846,0.103508 -0.29529,0.198861 -0.29247,0.206449 0.0224,0.06029 0.12005,0.04625 0.18008,0.06937 0.79804,0.15626 1.73122,0.315116 2.40839,0.810294 0.12166,0.08897 0.15162,0.260691 0.23398,0.386924 0.0342,0.06962 0.0892,0.132458 0.10244,0.208862 0.004,0.02564 -0.0515,0.02797 -0.057,0.05341 -0.0145,0.06724 -0.006,0.137906 0.001,0.206362 0.079,0.80242 0.17524,1.59889 0.28329,2.399443 0.26296,2.622499 0.92987,5.149794 1.79441,7.630649 1.24658,3.282266 3.76003,5.829276 6.39079,8.057416 2.31606,1.79458 5.13114,2.70909 8.06244,2.27491 0.51739,-0.0766 1.01626,-0.24788 1.52439,-0.37182 0.62651,-0.33734 1.31141,-0.58359 1.87954,-1.01202 2.58777,-1.95147 3.09505,-5.17444 3.40662,-8.165449 0.19608,-2.839307 0.16156,-5.687917 0.14804,-8.532082 0.0178,-0.452919 -0.002,-1.241737 0.16595,-1.722829 0.0262,-0.07492 0.27691,-0.129032 0.22884,-0.06587 -0.99081,1.301969 -0.62223,0.966681 -1.9561,1.513541 -0.17715,0.224618 -0.85821,-0.143862 -0.89859,0.01828 -0.0197,0.07892 0.0592,0.152053 0.0781,0.231153 0.0539,0.225327 0.0648,0.458848 0.0957,0.68848 0.24922,2.119926 0.24056,4.259887 0.24447,6.391278 -0.0366,2.282788 0.14499,4.650148 1.10826,6.757218 0.2404,0.52586 0.55897,1.01234 0.83846,1.51851 1.81089,2.24952 4.10464,4.09541 6.59799,5.53757 2.10561,1.16611 4.4642,1.44271 6.82387,1.56469 2.15319,0.009 4.39091,-0.37914 6.26868,-1.4985 0.47216,-0.28145 0.90489,-0.62433 1.35733,-0.9365 2.19497,-1.90718 3.05743,-4.59403 3.85148,-7.28667 0.009,0.24967 0.48514,-1.23121 0.66604,-1.00298 0.0388,0.0489 -0.0692,0.12304 -0.0468,0.18127 0.0143,0.0372 0.15192,-0.0159 0.11929,0.007 -0.17444,0.12202 -0.37482,0.20194 -0.56223,0.30291 0.0946,0.16557 -0.40363,0.0315 -0.34856,0.14456 0.0512,0.10508 0.195,0.12889 0.29109,0.19541 0.13749,0.0952 0.28334,0.18 0.40961,0.28963 0.21159,0.18372 0.37103,0.42055 0.56966,0.6182 0.84702,1.18804 1.70216,2.39745 2.84122,3.33121 0.35591,0.29176 0.74822,0.53606 1.12232,0.8041 1.39905,0.8319 2.74881,1.7445 4.23805,2.41539 1.32419,0.59653 1.61018,0.63851 2.99918,1.06981 2.39306,0.54288 4.79873,1.06263 7.22842,1.41937 2.11169,0.29645 4.24597,0.34613 6.37477,0.37684 1.90076,0.0331 3.79335,-0.19451 5.68836,-0.3114 1.98025,-0.003 3.89113,-0.45536 5.76327,-1.05893 2.59005,-0.90551 4.28735,-2.34287 5.94694,-4.4847 1.26827,-1.77394 1.64979,-3.89896 2.16328,-5.96457 0.29717,-1.10393 0.43726,-2.24374 0.68685,-3.35715 0.10321,-0.46041 0.26592,-0.905489 0.39043,-1.360601 0.44694,-1.774008 0.77108,-3.578125 1.05032,-5.385462 0.0819,-1.474658 0.49352,-2.883916 0.77119,-4.326887 0.29869,-1.705285 0.36721,-3.435212 0.40403,-5.16209 0.0231,-1.751819 0.0151,-3.503898 0.0129,-5.255823 0.13511,-2.072299 0.26124,-4.144444 0.34098,-6.219735 0.0693,-1.907495 0.0759,-3.816474 0.0813,-5.724985 0.002,-1.086353 10e-4,-2.172706 5.3e-4,-3.259056 -0.003,-5.65685 -8.00328,-5.652198 -7.99999,0.0047 v 0 c 5.3e-4,1.077201 0.002,2.154407 -5.3e-4,3.231607 -0.005,1.814103 -0.0104,3.628671 -0.0755,5.441834 -0.0831,2.18063 -0.23585,4.356481 -0.34682,6.535557 0.002,1.692828 0.01,3.385794 -0.0112,5.078529 -0.0264,1.287005 -0.0616,2.576896 -0.26787,3.85046 -0.27731,1.530234 -0.72684,3.030398 -0.81642,4.591701 -0.22949,1.505847 -0.50054,3.008225 -0.85949,4.488815 -0.44326,1.620404 -0.79255,3.254002 -1.12489,4.900226 -0.25335,1.02098 -0.45703,2.05471 -0.77185,3.05676 -0.59526,0.82046 -1.06903,1.37356 -2.07619,1.72221 -1.22437,0.41818 -2.45225,0.69632 -3.75802,0.67307 -1.69182,0.106 -3.38192,0.308 -5.0778,0.29679 -1.78294,-0.025 -3.57142,-0.0546 -5.3411,-0.29493 -2.0407,-0.29088 -4.05262,-0.75067 -6.07039,-1.16266 -1.84229,-0.52453 -3.47828,-1.39844 -5.07186,-2.45868 -1.266,-0.59703 -1.76847,-2.333895 -2.81941,-3.199561 -1.56762,-1.534676 -3.3459,-2.930324 -5.56172,-3.373798 -0.57541,-0.115162 -1.17006,-0.09173 -1.75508,-0.137601 -0.71411,0.152564 -1.44974,0.226258 -2.14232,0.457689 -0.46327,0.154808 -0.8894,0.414528 -1.29267,0.690144 -1.82177,1.245124 -2.92637,3.022757 -3.63885,5.077137 -0.30985,1.06708 -0.66682,2.14133 -1.02839,3.17656 -0.005,0.29678 0.0281,0.0935 -0.52888,0.36895 -0.59289,0.29321 -1.17985,0.46225 -1.85405,0.43438 -1.12408,-0.0498 -2.28194,-0.0545 -3.31153,-0.55852 -1.34969,-0.69151 -2.38015,-1.81838 -3.62893,-2.65211 -0.94346,-1.1413 -0.80269,-2.807205 -0.81689,-4.192428 -0.006,-2.731233 0.01,-5.482193 -0.45128,-8.182975 -0.13408,-0.516281 -0.22906,-1.044332 -0.40225,-1.548839 -0.79328,-2.310876 -2.40623,-4.296706 -4.7291,-5.203865 -0.58508,-0.228491 -1.23078,-0.251584 -1.84617,-0.377377 -0.86764,0.134662 -1.80009,0.04848 -2.60293,0.403989 -3.16441,1.401257 -3.90348,4.827791 -3.92654,7.908761 0.0123,2.571364 0.044,5.146135 -0.11003,7.714197 -0.0301,0.340839 -0.0522,0.682477 -0.0903,1.022507 -0.0481,0.42954 -0.21949,0.8503 -0.19546,1.28185 0.0112,0.20166 0.71224,-0.1863 0.81282,-0.0532 -0.15094,0.0722 -0.28238,0.19657 -0.44644,0.22937 -0.69072,0.1381 -1.31797,-0.16059 -1.85704,-0.56118 -0.89941,-0.73927 -1.76705,-1.501594 -2.52296,-2.39285 -0.2656,-0.313143 -0.49244,-0.657482 -0.75184,-0.975773 -0.10745,-0.131831 -0.26198,-0.226494 -0.34771,-0.373378 -0.15141,-0.2594 -0.23593,-0.552442 -0.3539,-0.828664 -0.69948,-1.977385 -1.22671,-3.981267 -1.41895,-6.079157 -0.40128,-2.803308 -0.46807,-5.063508 -2.49648,-7.325685 -0.36167,-0.3512 -0.69288,-0.736769 -1.085,-1.0536 -1.78139,-1.439338 -3.99292,-2.171808 -6.2292,-2.515446 -0.45609,-0.04759 -0.90976,-0.135761 -1.36827,-0.142764 -1.57948,-0.02413 -3.53043,0.389866 -4.66461,1.600448 -0.631634,0.674185 -1.072158,1.517627 -1.457963,2.357054 -0.181747,0.395446 -0.144716,0.858311 -0.217074,1.287468 -0.0041,0.409604 -0.03122,0.819621 -0.01241,1.228812 0.08047,1.748809 0.627414,3.433342 0.858578,5.160957 0.297119,3.407074 0.706719,6.817551 0.548379,10.244318 -0.10448,3.47253 -0.15635,7.04385 -1.304119,10.35915 -1.062016,2.18288 -2.141945,2.94338 -4.579485,3.15519 -0.390983,-0.0272 -0.786008,-0.0193 -1.172951,-0.0816 -1.597271,-0.25722 -3.380822,-0.91812 -4.669253,-1.91592 -0.408064,-0.31603 -0.758034,-0.70067 -1.137052,-1.051 -0.653097,-0.68186 -1.36021,-1.31609 -1.957374,-2.04744 -0.265891,-0.32564 -0.477057,-0.69255 -0.726559,-1.03091 -0.303221,-0.41122 -0.496822,-0.49582 -0.611473,-0.98925 -0.04733,-0.20371 -0.03734,-0.4166 -0.05601,-0.62489 0.205883,-2.12587 0.749708,-4.17306 1.659126,-6.11526 1.413996,-3.277821 3.245725,-6.518205 3.522503,-10.138829 0.266475,-3.504552 0.203441,-7.059623 -0.847812,-10.446359 -0.299776,-0.773366 -0.543502,-1.570865 -0.899327,-2.320099 -1.658834,-3.49287 -4.507468,-6.309863 -7.321679,-8.876183 -0.621887,-0.459513 -1.223479,-0.947846 -1.865657,-1.378543 -2.59399,-1.739744 -5.721313,-3.236434 -8.926184,-3.04995 -0.661876,0.03851 -1.280806,0.343202 -1.921208,0.514802 -0.497999,0.262226 -1.018792,0.485109 -1.493999,0.786675 -2.396855,1.521048 -3.800287,3.968827 -4.917064,6.497066 -1.090658,2.978912 -1.906628,6.120199 -1.928752,9.311085 0.129,2.215443 0.562327,4.26168 1.412298,6.322314 0.918345,2.639734 1.522772,5.37202 2.230602,8.071466 0.902165,2.910649 2.254549,5.751815 2.435452,8.825965 0.04025,2.74235 -0.283276,5.52146 -1.413084,8.04741 -1.114912,2.04804 -1.434743,2.73419 -3.869195,3.27357 -0.02903,0.003 -1.940864,0.20944 -2.229279,0.19384 -1.025609,-0.0555 -2.020884,-0.42693 -2.913303,-0.90799 -1.295437,-0.65926 -2.343121,-1.61387 -3.215629,-2.77902 -0.1777,-0.32044 -0.423294,-0.60829 -0.548421,-0.95268 -0.267972,-0.73754 -0.164843,-1.4982 -0.07502,-2.25724 0.253799,-1.74194 0.898967,-2.89087 1.837219,-4.40019 0.49997,-0.95852 1.098322,-2.06316 1.505749,-3.05069 0.906571,-2.197363 1.385419,-4.571067 1.897914,-6.879356 0.08971,-0.736515 0.214472,-1.469601 0.269134,-2.20954 0.232577,-3.148132 -0.278217,-6.246776 -1.527688,-9.143027 -0.674359,-1.359082 -0.951563,-2.035138 -1.845664,-3.3153 C 51.6302,78.536256 49.670309,76.950581 47.562117,75.605829 46.924336,75.241712 46.306788,74.839616 45.64878,74.51348 42.39213,72.899348 38.752072,72.209859 35.148418,72.738113 c -0.55716,0.156512 -1.129324,0.267076 -1.671479,0.469538 -2.853468,1.065598 -5.009404,3.315676 -5.429938,6.399807 -0.125836,2.424888 0.107527,4.850953 0.682204,7.214627 0.515067,1.948566 1.195491,3.846978 1.681451,5.80485 0.200057,0.638918 0.425948,1.269886 0.611733,1.913101 0.387114,1.340231 0.478091,2.736207 0.677156,4.11099 0.240527,2.234584 0.06613,4.501804 -0.0182,6.741694 -0.197159,2.04221 -0.463092,4.01403 -1.880983,5.61071 -0.237091,0.27005 -0.448223,0.56531 -0.711272,0.81014 -1.000503,0.93122 -2.231075,1.48512 -3.465554,2.02491 -0.308248,0.13478 -0.605009,0.30484 -0.92978,0.39263 -0.418347,0.11308 -0.855806,0.13713 -1.283709,0.2057 -0.399589,0.041 -1.233739,0.17418 -1.686037,0.0728 -1.323602,-0.29653 -2.38099,-1.22111 -3.378023,-2.07383 -1.407655,-1.46028 -2.709073,-2.9789 -3.508422,-4.8732 -0.734272,-1.43322 -1.23035,-2.79448 -1.506913,-4.39584 -0.373189,-1.44229 -0.70943,-2.8906 -0.936036,-4.365645 -0.08712,-0.436454 -0.276113,-0.981866 -0.3049,-1.426355 -0.04889,-0.754814 0.04458,-1.518793 0.0041,-2.27421 -5.82e-4,-1.759927 -0.0022,-3.520856 -0.09495,-5.278885 -0.138628,-2.064398 -0.372527,-4.121862 -0.973164,-6.110983 -0.368162,-1.258345 -0.647202,-2.583738 -0.640458,-3.894571 -0.0021,-1.739406 -0.0021,-3.479155 -0.05287,-5.217983 C 10.270905,72.743242 10.178695,70.88892 9.9881287,69.042181 9.4252509,63.413406 1.464959,64.209434 2.0278366,69.838212 Z" />
  </g>
</svg>
